<svg id="Layer_1" data-name="Layer 1" xmlns="http://www.w3.org/2000/svg" viewBox="0 0 407.98 222.09"><defs><style>.cls-1,.cls-3{fill:#fff;}.cls-2{fill:#939598;}.cls-3{font-size:27px;font-family:OCRAStd, OCR A Std;}</style></defs><title>cbb-transparent-wide</title><path class="cls-1" d="M288.08,74.94A31.46,31.46,0,0,0,276,49.82L267.78,64c3.87,2.56,3.65,7.65,3.65,11,0,8.94-6.91,13.89-18.23,13.89-.56.85-5.46,9.57-7.73,13.08h7c15.15,0,19,6.1,19,17,0,9.85-7,14-19,14h-24.9l-7.62,13h32.52c21.15,0,35.64-10,35.64-27,0-9.6-1.5-16.47-11-23.47C285.92,89.34,288.08,82.46,288.08,74.94Z"/><path class="cls-1" d="M212.19,114.33c4.58-7.7,8.06-15.85,11.74-24,.25-.57.51-1.12.76-1.68h-2.56V64.55a7.21,7.21,0,0,1,7.22-7.21h14.1c3.5-4.4,7.13-8.69,10.68-13-.92,0-1.86-.07-2.83-.07H215.48a9.56,9.56,0,0,0-9.55,9.56v71.64C207.84,121.64,210,118,212.19,114.33Z"/><path class="cls-1" d="M31.38,86.88c0-11.13,1.81-16.6,9.38-23.78L52.43,52c7.41-7,11.19-7.17,20.4-7.17h25c5.27,0,11.72-.41,11.72,7.33,0,7.93-6.35,8.19-11,8.19h-28c-3.13,0-8.8,3.66-11.59,6.3L52.9,74.1a15.49,15.49,0,0,0-4.27,10.33v22.46c0,3.58,1.81,5.47,4.27,7.73l8.68,9.25c2.8,2.64,8.12,8,11.24,8h25c8.8-.07,11.37,1.4,11.37,8.32,0,6.42-6.1,6.34-11.37,6.34h-25c-9.21,0-13-.19-20.4-7.17L40.76,128.21c-7.57-7.17-9.38-12.64-9.38-23.78Z"/><path class="cls-2" d="M301.37,56.47c-3-2-4.84-3.93-5-7.71,0-4.24,3.63-8.32,7.87-8.32,2.57,0,4.69,1.36,6.5,2.57l62.18,41.3c3.33,2.12,5.6,3.78,5.6,8.17.15,4.24-2.27,6-5.6,8.17L310.6,142.1a11.47,11.47,0,0,1-6.2,2.27c-4.39,0-7.87-3.93-8-8.17,0-3.93,2.42-6,5.3-8l53.85-35.7Z"/><path class="cls-2" d="M206.32,154.36c-2.16,3.77-4.31,6.28-8.79,6.28s-9-3.77-9-8.43c0-3.41,2.15-6.46,3.95-9.33l67.08-115c2.15-3.59,4.3-6.82,8.79-6.82a8.74,8.74,0,0,1,8.79,8.43,14,14,0,0,1-2,7Z"/><path class="cls-1" d="M117.67,54.25a9.94,9.94,0,0,1,9.93-9.94H163c24.69,0,36,11.75,36,30.15,0,7.57-2.19,14.49-11.09,20.62,9.58,7,11.09,14,11.09,23.63,0,17.09-14.62,27.14-36,27.14H128.74a11.07,11.07,0,0,1-11.07-11.06Zm15.07,34.31H163c12.09,0,19.15-4.18,19.15-14.1,0-11-3.86-17.09-19.15-17.09H140.14a7.4,7.4,0,0,0-7.4,7.4Zm0,38.52a5.72,5.72,0,0,0,5.72,5.72H163c12.09,0,19.15-4.17,19.15-14.09,0-11-3.86-16.24-19.15-16.24H132.74Z"/><text class="cls-3" transform="translate(31.38 186.28)">coders beyond bars</text></svg>