<svg id="assets" xmlns="http://www.w3.org/2000/svg" viewBox="0 0 102.43 35"><defs><style>.cls-1{fill:#a13023;}</style></defs><title>products-tk-caffe</title><path class="cls-1" d="M23.82,26.11H22.63l-2.15,5.68a2.55,2.55,0,0,1-1.33.6,11.52,11.52,0,0,1-2.51.23,12.46,12.46,0,0,1-5.07-1,10.26,10.26,0,0,1-3.79-2.84A12.87,12.87,0,0,1,5.4,24.3a19.7,19.7,0,0,1-.82-5.89,19.55,19.55,0,0,1,.91-6.3A13.17,13.17,0,0,1,7.94,7.67,9.55,9.55,0,0,1,11.5,5.06a11.1,11.1,0,0,1,4.32-.85q1.14,0,2.31.09a4.45,4.45,0,0,1,1.67.37l2.38,6.6h1.19q.14-.87.27-1.92t.23-2.15Q24,6.09,24,5.11t0-1.72a13.83,13.83,0,0,0-3.62-1.17,28.06,28.06,0,0,0-5.08-.39,18.71,18.71,0,0,0-5.86.92,12.89,12.89,0,0,0-4.9,2.91,14,14,0,0,0-3.34,5.13A20.85,20.85,0,0,0,0,18.42a22.13,22.13,0,0,0,1.12,7.44A13.22,13.22,0,0,0,4.33,31a13,13,0,0,0,5.11,3,22.17,22.17,0,0,0,6.87,1q1,0,2.13-.09a17.51,17.51,0,0,0,2.2-.32,16,16,0,0,0,2-.57,5.67,5.67,0,0,0,1.65-.89,26.44,26.44,0,0,0-.09-3.78Q24.05,27.4,23.82,26.11ZM45.9,30.19q0-.73,0-1.74,0-2.34.11-4.88t.11-5.29a14.6,14.6,0,0,0-.23-2.57,5.86,5.86,0,0,0-1-2.34,5.28,5.28,0,0,0-2.13-1.72A8.8,8.8,0,0,0,39,11a17.6,17.6,0,0,0-4.74.6,15.51,15.51,0,0,0-3.87,1.65,17.57,17.57,0,0,0,.44,2.89q.34,1.47.8,2.84h1.19L35,13.47a5.32,5.32,0,0,1,1.58-.39Q37.38,13,38,13a3.68,3.68,0,0,1,2.22.62,3.79,3.79,0,0,1,1.28,1.74,8.54,8.54,0,0,1,.5,2.7,26.44,26.44,0,0,1-.11,3.55q-3.21.18-5.63.53a14.29,14.29,0,0,0-4.08,1.12,5.75,5.75,0,0,0-2.5,2.13,6.41,6.41,0,0,0-.85,3.46,5.88,5.88,0,0,0,1.76,4.44A6.3,6.3,0,0,0,35.18,35a6.85,6.85,0,0,0,4.6-1.65,6.25,6.25,0,0,0,1.37-1.67,6.35,6.35,0,0,0,.71-1.86h.23q0,1.51.14,2.77a7,7,0,0,0,.55,2.31h1.14a19.94,19.94,0,0,0,2.68-.69,16.89,16.89,0,0,0,2.54-1.05v-1L46,31.75Q45.95,30.92,45.9,30.19Zm-3.94-2a6,6,0,0,1-.5,1.12,6.69,6.69,0,0,1-1,1.31A5.41,5.41,0,0,1,39,31.7a4.27,4.27,0,0,1-2,.46,3.58,3.58,0,0,1-2.75-1.08,4.29,4.29,0,0,1-1-3,5.32,5.32,0,0,1,.37-2A3.17,3.17,0,0,1,35,24.51a7.33,7.33,0,0,1,2.66-.87A28.09,28.09,0,0,1,42,23.36ZM59.53,5.41a5.29,5.29,0,0,1,.92-2.25A3,3,0,0,1,62,2.11a8.15,8.15,0,0,1,2.27-.27l2,3.94h1.14a17.07,17.07,0,0,0,.62-2.36q.25-1.31.39-2.82a8.68,8.68,0,0,0-1-.25c-.37-.08-.75-.14-1.15-.18L65.19,0q-.55,0-1,0a15,15,0,0,0-3.6.41A6.86,6.86,0,0,0,57.72,1.9,7,7,0,0,0,55.8,4.83a13.68,13.68,0,0,0-.69,4.7v1.6a12.47,12.47,0,0,0-3.48,1.56v1.23h3.48V32.22a9,9,0,0,0-3,1.09v1.14H63.63V33.31a16.66,16.66,0,0,0-4.4-1.09V13.93H64.5V11.54H59.23V9.25A20,20,0,0,1,59.53,5.41ZM84.11.6a8.69,8.69,0,0,0-1-.25C82.78.27,82.4.21,82,.16L80.86,0q-.55,0-1,0a15,15,0,0,0-3.6.41A6.86,6.86,0,0,0,73.39,1.9a7,7,0,0,0-1.92,2.93,13.68,13.68,0,0,0-.69,4.7v1.6A12.48,12.48,0,0,0,67.3,12.7v1.23h3.48V32.22a9,9,0,0,0-3,1.09v1.14H79.3V33.31a16.66,16.66,0,0,0-4.4-1.09V13.93h5.27V11.54H74.9V9.25a20,20,0,0,1,.3-3.85,5.29,5.29,0,0,1,.92-2.25,3,3,0,0,1,1.56-1.05,8.15,8.15,0,0,1,2.27-.27l2,3.94H83.1a17.09,17.09,0,0,0,.62-2.36Q84,2.11,84.11.6Zm17.57,15a7.35,7.35,0,0,0-2-2.68,7.43,7.43,0,0,0-2.77-1.44A11.72,11.72,0,0,0,93.78,11a9.66,9.66,0,0,0-7.65,3.07q-2.7,3.07-2.7,8.93a16.05,16.05,0,0,0,.71,4.95,10.68,10.68,0,0,0,2.08,3.78,9,9,0,0,0,3.44,2.43,12.46,12.46,0,0,0,4.76.85,10,10,0,0,0,2.43-.3,10.71,10.71,0,0,0,2.2-.8,8.28,8.28,0,0,0,1.79-1.19A4.58,4.58,0,0,0,102,31.24l-.64-.73a6.21,6.21,0,0,1-2.47,1.19,12.1,12.1,0,0,1-3.25.46,7.79,7.79,0,0,1-3.44-.71,6.75,6.75,0,0,1-2.43-1.95,8.51,8.51,0,0,1-1.44-2.91,13,13,0,0,1-.48-3.6h14.29a15.63,15.63,0,0,0,.25-1.72q.07-.8.07-1.58A10.06,10.06,0,0,0,101.68,15.55ZM98.1,20.18c0,.26,0,.53-.07.8H88q.27-4.44,1.65-6.21a4.75,4.75,0,0,1,4-1.76A3.77,3.77,0,0,1,97,14.75a8.67,8.67,0,0,1,1.1,4.67Q98.13,19.79,98.1,20.18Z"/></svg>